<?xml version="1.0" encoding="UTF-8"?>
<svg version="1.1" xmlns="http://www.w3.org/2000/svg" width="512" height="512">
<path d="M0 0 C1.33875687 0.00303635 1.33875687 0.00303635 2.70455933 0.00613403 C4.10688309 0.00350555 4.10688309 0.00350555 5.53753662 0.00082397 C8.6440107 -0.00359617 11.75042837 -0.00065598 14.85690308 0.00271606 C17.00542207 0.00204307 19.15394099 0.00107309 21.30245972 -0.00018311 C25.81182579 -0.0016603 30.3211721 0.00049517 34.83053589 0.00515747 C40.62488885 0.01085477 46.41919549 0.00757588 52.21354675 0.00158501 C56.65203198 -0.00202002 61.09050614 -0.00088229 65.5289917 0.0017128 C67.66613775 0.00238223 69.80328479 0.00155309 71.94042969 -0.00076675 C74.92172934 -0.00329233 77.90295288 0.00054597 80.88424683 0.00613403 C81.7767514 0.0041098 82.66925598 0.00208557 83.58880615 0 C89.68014075 0.02126624 89.68014075 0.02126624 90.79440308 1.13552856 C90.90343221 3.49510657 90.94862178 5.82648893 90.95211792 8.18704224 C90.95719864 8.92547867 90.96227936 9.6639151 90.96751404 10.42472839 C90.97824622 12.03601569 90.98685513 13.64731816 90.99363327 15.25862694 C91.00542021 17.82080701 91.02488029 20.38281835 91.04675293 22.94493103 C91.10831988 30.23293291 91.16209568 37.52092447 91.19577026 44.80911255 C91.21691254 49.26489393 91.25238623 53.72037897 91.29652786 58.17598915 C91.31055486 59.86415385 91.31937973 61.55237112 91.32258224 63.24059105 C91.36625623 84.09019459 95.31129598 102.41116516 109.79440308 118.13552856 C122.63998926 130.6533167 139.09461978 136.11637295 156.79440308 136.13552856 C175.13651053 135.02449783 190.21760242 127.35889775 202.79440308 114.13552856 C215.68172595 97.46959258 217.06689005 79.37777554 217.17330933 59.17849731 C217.18952587 57.49695408 217.20671004 55.81541992 217.22480774 54.13389587 C217.27001214 49.75657331 217.30508649 45.37923798 217.33700562 41.00180054 C217.38937429 33.95146682 217.45390097 26.9012642 217.52522087 19.85109901 C217.54805733 17.39312096 217.56430921 14.93516015 217.5799408 12.47712708 C217.593335 10.98589878 217.6069487 9.49467243 217.62081909 8.00344849 C217.63033096 6.69776413 217.63984283 5.39207977 217.64964294 4.04682922 C217.79440308 1.13552856 217.79440308 1.13552856 218.79440308 0.13552856 C221.80790545 0.04023245 224.79844413 0.01000953 227.81222534 0.02200317 C228.75846771 0.02185715 229.70471008 0.02171112 230.67962646 0.02156067 C233.823377 0.0222602 236.96706908 0.03005448 240.11080933 0.03787231 C242.28414375 0.03973635 244.4574786 0.04116032 246.6308136 0.04216003 C252.36341503 0.04598635 258.0959913 0.0558176 263.82858276 0.06686401 C269.67330586 0.0770757 275.51803301 0.08165713 281.36276245 0.08670044 C292.83998707 0.09743977 304.31719299 0.11451754 315.79440308 0.13552856 C315.86447892 11.13346396 315.91750265 22.13134466 315.94983959 33.12945938 C315.96537398 38.23849731 315.98638336 43.34738046 316.02072144 48.45632935 C316.05375791 53.40361766 316.07134749 58.35075885 316.07903481 63.29814911 C316.08450008 65.16841696 316.09516705 67.03867844 316.11159325 68.90888214 C316.24834934 85.15253226 315.14942101 101.55791912 310.16940308 117.13552856 C309.7909021 118.34934204 309.7909021 118.34934204 309.40475464 119.587677 C303.04006553 139.21150443 293.34622052 157.52959706 279.79440308 173.13552856 C279.09830933 173.94119263 278.40221558 174.74685669 277.68502808 175.57693481 C275.42695969 178.13527825 273.12416457 180.64234171 270.79440308 183.13552856 C269.97327026 184.02240356 269.15213745 184.90927856 268.30612183 185.82302856 C242.73467479 212.49310074 203.59908965 230.87608006 166.45895386 232.25979614 C162.44496471 232.34281052 158.43412667 232.38160472 154.41940308 232.38552856 C153.34893234 232.38703918 153.34893234 232.38703918 152.25683594 232.38858032 C141.16536467 232.37799819 130.60877661 231.71459615 119.79440308 229.13552856 C117.88981323 228.70046997 117.88981323 228.70046997 115.94674683 228.25662231 C89.26889091 221.66302607 62.47726046 208.68386429 43.30319214 188.64920044 C41.64536127 186.92411619 41.64536127 186.92411619 38.91940308 184.88552856 C15.99205746 166.14333334 0.77855301 132.13069381 -4.6865387 103.81248474 C-5.01536273 102.11662968 -5.36113278 100.42389975 -5.72998047 98.73629761 C-7.698232 88.77893556 -7.47701357 78.85158674 -7.43606567 68.74880981 C-7.43487155 66.79537486 -7.4344212 64.84193933 -7.43467712 62.88850403 C-7.43312245 58.82147561 -7.4249046 54.7545365 -7.41140747 50.68753052 C-7.39429416 45.46407625 -7.39059721 40.24071861 -7.39135265 35.01723957 C-7.39108164 30.99653698 -7.38561354 26.97585568 -7.37835121 22.95516014 C-7.3751632 21.02734729 -7.37319683 19.09953203 -7.3724575 17.17171669 C-7.37030238 14.49335167 -7.36157994 11.81509187 -7.3508606 9.13674927 C-7.35131378 8.33633209 -7.35176697 7.53591492 -7.35223389 6.71124268 C-7.31196824 -0.128545 -6.78111449 0.02367442 0 0 Z " fill="#FBAC1B" transform="translate(102.20559692382813,277.8644714355469)"/>
<path d="M0 0 C6.09153702 3.21765161 10.4670267 8.95284286 12.66796875 15.3515625 C12.92968178 17.99705982 12.92968178 17.99705982 12.94644165 20.88813782 C12.95760513 21.98885117 12.96876862 23.08956451 12.98027039 24.22363281 C12.98243057 25.42125244 12.98459076 26.61887207 12.98681641 27.8527832 C12.99686203 29.12147751 13.00690765 30.39017181 13.01725769 31.6973114 C13.04451697 35.16796624 13.05969494 38.63858057 13.07268572 42.1093142 C13.08833414 45.73952383 13.11511889 49.36965098 13.14071655 52.99980164 C13.18747409 59.87030171 13.2242328 66.74081735 13.25738943 73.61139506 C13.29563222 81.43487144 13.34503672 89.25826491 13.39537358 97.08167136 C13.49864843 113.1715755 13.58792325 129.26152567 13.66796875 145.3515625 C14.40321777 144.59012939 15.1384668 143.82869629 15.89599609 143.04418945 C18.65981266 140.18902095 21.44084421 137.35113133 24.22705078 134.51782227 C25.42442929 133.29549167 26.61725986 132.06868699 27.80517578 130.8371582 C43.46296544 114.61969146 43.46296544 114.61969146 54.23046875 113.7890625 C61.37431319 114.28043804 66.79936872 117.02523865 71.60546875 122.2890625 C75.48898229 126.90704669 76.97120958 131.13819521 77.10546875 137.1640625 C77.14542969 138.13988281 77.18539062 139.11570313 77.2265625 140.12109375 C75.93219952 147.60667545 70.29089113 153.16997507 65.06103516 158.34667969 C64.41805984 158.99491196 63.77508453 159.64314423 63.11262512 160.3110199 C61.0056931 162.43105162 58.88810195 164.54004128 56.76953125 166.6484375 C55.29085201 168.12914009 53.81261815 169.61028758 52.33480835 171.09185791 C49.24465792 174.18641792 46.14918076 177.27552072 43.04980469 180.36083984 C39.08646908 184.30706973 35.1367754 188.2666364 31.19097328 192.23038864 C28.14400248 195.28822125 25.08989614 198.33884647 22.0336113 201.38736725 C20.57463017 202.8443538 19.11785584 204.30355377 17.66337967 205.76503754 C15.62734087 207.80873168 13.58186732 209.8425026 11.53369141 211.87402344 C10.94021408 212.47357346 10.34673676 213.07312347 9.73527527 213.69084167 C4.08364 219.25802889 -1.53615198 222.98264871 -9.58203125 223.6015625 C-24.71162032 222.59292323 -35.63636359 207.23302405 -45.765625 197.15625 C-46.43672869 196.48922184 -47.10783237 195.82219368 -47.79927254 195.13495255 C-51.33939933 191.61551514 -54.87636436 188.09293453 -58.41088867 184.56787109 C-62.04948975 180.94040599 -65.69963831 177.32478853 -69.35237026 173.7115612 C-72.17547115 170.91460625 -74.98964852 168.10880044 -77.80150032 165.30054092 C-79.14371511 163.96318322 -80.48929418 162.62919285 -81.83834648 161.29873276 C-83.72138042 159.44008608 -85.59134394 157.56916393 -87.45874023 155.69482422 C-88.2886145 154.88416504 -88.2886145 154.88416504 -89.13525391 154.05712891 C-93.97900096 149.14760675 -96.75899867 144.00249066 -96.76953125 136.9140625 C-96.54845741 130.4498633 -94.91527303 126.08041498 -90.4609375 121.375 C-84.6866443 116.07007279 -80.04966322 113.69871236 -72.11376953 114.01489258 C-60.98151348 115.36221407 -53.63972818 124.47845608 -46.33203125 132.1015625 C-44.63965819 133.84398015 -42.94369454 135.58279457 -41.24560547 137.31964111 C-40.19753446 138.39404175 -39.15341811 139.47231787 -38.11376953 140.55487061 C-35.49796121 143.30939677 -35.49796121 143.30939677 -32.33203125 145.3515625 C-32.33571842 144.68895164 -32.33940559 144.02634079 -32.3432045 143.34365082 C-32.43164321 127.2012616 -32.49778337 111.05894938 -32.53927994 94.91637421 C-32.55988213 87.10985092 -32.58795765 79.30348961 -32.63378906 71.49707031 C-32.6737289 64.69089728 -32.69948109 57.8848416 -32.70838523 51.07855463 C-32.71358797 47.4765129 -32.72576668 43.8748068 -32.75495148 40.27287292 C-32.78731123 36.24621865 -32.7879861 32.22014335 -32.78613281 28.19335938 C-32.80051392 27.00652557 -32.81489502 25.81969177 -32.82971191 24.59689331 C-32.79016293 16.65037264 -31.74816053 11.17421772 -26.296875 5.07421875 C-25.29333984 4.25244141 -25.29333984 4.25244141 -24.26953125 3.4140625 C-23.26212891 2.56521484 -23.26212891 2.56521484 -22.234375 1.69921875 C-16.61249346 -2.28342834 -6.49137435 -1.80497176 0 0 Z " fill="#FBAC1B" transform="translate(266.33203125,1.6484375)"/>
<path d="M0 0 C0.75157883 -0.0065712 1.50315765 -0.0131424 2.2775116 -0.01991272 C4.76467999 -0.03962273 7.25178809 -0.05130292 9.73901367 -0.0612793 C10.58931341 -0.06535482 11.43961315 -0.06943035 12.31567955 -0.07362938 C16.81591931 -0.09447992 21.31612866 -0.10878625 25.81640625 -0.11816406 C30.46026007 -0.12922883 35.10363476 -0.16363219 39.74731922 -0.20333576 C43.32216778 -0.22950105 46.89690211 -0.23785579 50.471838 -0.24144554 C52.18343022 -0.24631142 53.89501735 -0.25792552 55.60651588 -0.27648354 C58.00498904 -0.30087481 60.40222161 -0.29991055 62.80078125 -0.29296875 C63.85539047 -0.31218384 63.85539047 -0.31218384 64.93130493 -0.33178711 C70.80242279 -0.27003772 74.08510033 2.01374153 78.40698242 5.73950195 C89.54882155 19.22699142 80.59448242 40.68263282 80.59448242 58.17700195 C48.25448242 58.17700195 15.91448242 58.17700195 -17.40551758 58.17700195 C-17.40551758 8.55200195 -17.40551758 8.55200195 -12.40551758 2.92700195 C-8.66651909 -0.34462172 -4.70308802 0.01783294 0 0 Z " fill="#FBAC1B" transform="translate(337.405517578125,205.822998046875)"/>
<path d="M0 0 C0.75201691 -0.00700928 1.50403381 -0.01401855 2.27883911 -0.02124023 C4.75007703 -0.03876071 7.22015788 -0.02721951 9.69140625 -0.01367188 C11.41723855 -0.01636852 13.14306937 -0.02025238 14.86889648 -0.02526855 C18.48012809 -0.03115552 22.09096306 -0.02262674 25.70214844 -0.00390625 C30.32248 0.01888307 34.94188207 0.00575565 39.56217957 -0.01819611 C43.12421627 -0.03267593 46.68603396 -0.02803814 50.24807739 -0.01768494 C51.95126456 -0.01502367 53.65447185 -0.01826623 55.3576355 -0.02760315 C57.74156076 -0.03780517 60.12399762 -0.02221868 62.5078125 0 C63.20617218 -0.00809692 63.90453186 -0.01619385 64.62405396 -0.02453613 C69.62821004 0.06152118 72.4557765 1.30061688 76.25390625 4.51757812 C86.26586491 19.53551612 80.25390625 40.46826296 80.25390625 58.51757812 C47.91390625 58.51757812 15.57390625 58.51757812 -17.74609375 58.51757812 C-17.74609375 10.51757812 -17.74609375 10.51757812 -13.74609375 4.51757812 C-9.29064076 0.74387355 -5.68705247 -0.06593684 0 0 Z " fill="#FBAD1A" transform="translate(112.74609375,205.482421875)"/>
<path d="M0 0 C1.33875687 0.00303635 1.33875687 0.00303635 2.70455933 0.00613403 C4.10688309 0.00350555 4.10688309 0.00350555 5.53753662 0.00082397 C8.6440107 -0.00359617 11.75042837 -0.00065598 14.85690308 0.00271606 C17.00542207 0.00204307 19.15394099 0.00107309 21.30245972 -0.00018311 C25.81182579 -0.0016603 30.3211721 0.00049517 34.83053589 0.00515747 C40.62488885 0.01085477 46.41919549 0.00757588 52.21354675 0.00158501 C56.65203198 -0.00202002 61.09050614 -0.00088229 65.5289917 0.0017128 C67.66613775 0.00238223 69.80328479 0.00155309 71.94042969 -0.00076675 C74.92172934 -0.00329233 77.90295288 0.00054597 80.88424683 0.00613403 C81.7767514 0.0041098 82.66925598 0.00208557 83.58880615 0 C89.68014075 0.02126624 89.68014075 0.02126624 90.79440308 1.13552856 C90.90343221 3.49510657 90.94862178 5.82648893 90.95211792 8.18704224 C90.95719864 8.92547867 90.96227936 9.6639151 90.96751404 10.42472839 C90.97824622 12.03601569 90.98685513 13.64731816 90.99363327 15.25862694 C91.00542021 17.82080701 91.02488029 20.38281835 91.04675293 22.94493103 C91.10831988 30.23293291 91.16209568 37.52092447 91.19577026 44.80911255 C91.21691254 49.26489393 91.25238623 53.72037897 91.29652786 58.17598915 C91.31055486 59.86415385 91.31937973 61.55237112 91.32258224 63.24059105 C91.36625623 84.09019459 95.31129598 102.41116516 109.79440308 118.13552856 C122.63998926 130.6533167 139.09461978 136.11637295 156.79440308 136.13552856 C175.13651053 135.02449783 190.21760242 127.35889775 202.79440308 114.13552856 C215.68172595 97.46959258 217.06689005 79.37777554 217.17330933 59.17849731 C217.18952587 57.49695408 217.20671004 55.81541992 217.22480774 54.13389587 C217.27001214 49.75657331 217.30508649 45.37923798 217.33700562 41.00180054 C217.38937429 33.95146682 217.45390097 26.9012642 217.52522087 19.85109901 C217.54805733 17.39312096 217.56430921 14.93516015 217.5799408 12.47712708 C217.593335 10.98589878 217.6069487 9.49467243 217.62081909 8.00344849 C217.63033096 6.69776413 217.63984283 5.39207977 217.64964294 4.04682922 C217.79440308 1.13552856 217.79440308 1.13552856 218.79440308 0.13552856 C221.80790545 0.04023245 224.79844413 0.01000953 227.81222534 0.02200317 C228.75846771 0.02185715 229.70471008 0.02171112 230.67962646 0.02156067 C233.823377 0.0222602 236.96706908 0.03005448 240.11080933 0.03787231 C242.28414375 0.03973635 244.4574786 0.04116032 246.6308136 0.04216003 C252.36341503 0.04598635 258.0959913 0.0558176 263.82858276 0.06686401 C269.67330586 0.0770757 275.51803301 0.08165713 281.36276245 0.08670044 C292.83998707 0.09743977 304.31719299 0.11451754 315.79440308 0.13552856 C315.81759819 11.35802045 315.83535472 22.58050662 315.84621525 33.80301762 C315.85142838 39.01436779 315.85849753 44.22570152 315.86984253 49.43704224 C315.88072718 54.46854755 315.88669174 59.50003709 315.88928032 64.53155327 C315.89112451 66.448829 315.89472575 68.36610389 315.90013313 70.28337288 C315.90741759 72.97377498 315.9083909 75.66411229 315.90792847 78.35452271 C315.91152374 79.14287003 315.91511902 79.93121735 315.91882324 80.74345398 C315.91035807 85.31055226 315.54704482 89.62920759 314.79440308 94.13552856 C314.13440308 94.13552856 313.47440308 94.13552856 312.79440308 94.13552856 C313.12440308 64.10552856 313.45440308 34.07552856 313.79440308 3.13552856 C282.77440308 3.13552856 251.75440308 3.13552856 219.79440308 3.13552856 C219.99166241 29.73051497 219.99166241 29.73051497 220.24484253 56.32498169 C220.26742554 61.52127075 220.26742554 61.52127075 220.2716217 63.96987915 C220.27919541 65.64507735 220.2965585 67.32025195 220.32228088 68.99526978 C220.53450511 83.57033401 219.15733378 97.71180971 209.91940308 109.63552856 C209.48233032 110.20537476 209.04525757 110.77522095 208.59494019 111.36233521 C207.34963287 112.97031338 206.07302666 114.55391361 204.79440308 116.13552856 C204.19498901 116.928302 203.59557495 117.72107544 202.97799683 118.53787231 C194.86345117 128.72504891 179.5660867 136.55458416 166.79440308 139.13552856 C162.94362914 139.38545587 159.0899731 139.3667887 155.23190308 139.38552856 C153.68019409 139.41646606 153.68019409 139.41646606 152.09713745 139.44802856 C135.71342464 139.53010101 122.03399712 132.80414023 109.79440308 122.13552856 C108.81600464 121.33308716 108.81600464 121.33308716 107.81784058 120.51443481 C103.08248197 116.27902442 99.76734114 111.33094968 96.48190308 105.94802856 C96.06110474 105.2778772 95.6403064 104.60772583 95.20675659 103.91726685 C88.16517465 91.87473045 88.37508201 78.64016515 88.50143433 65.14724731 C88.50585759 63.55207637 88.50891046 61.95690104 88.5105896 60.36172485 C88.52617449 54.51542538 88.56805757 48.66921976 88.60690308 42.82302856 C88.66877808 29.72615356 88.73065308 16.62927856 88.79440308 3.13552856 C57.77440308 3.13552856 26.75440308 3.13552856 -5.20559692 3.13552856 C-5.06122192 15.24240356 -4.91684692 27.34927856 -4.76809692 39.82302856 C-4.7249939 43.59957886 -4.68189087 47.37612915 -4.63748169 51.26712036 C-4.43913718 67.57347547 -4.21427509 83.85434907 -3.20559692 100.13552856 C-3.86559692 100.13552856 -4.52559692 100.13552856 -5.20559692 100.13552856 C-7.82521791 89.80729048 -7.47878188 79.41536878 -7.43606567 68.84646606 C-7.43487182 66.89160187 -7.43442115 64.9367371 -7.43467712 62.98187256 C-7.43312132 58.9088679 -7.42489525 54.83595226 -7.41140747 50.76296997 C-7.3943056 45.53163997 -7.39059682 40.30040644 -7.39135265 35.06905174 C-7.39108161 31.04405795 -7.38561287 27.01908541 -7.37835121 22.99409866 C-7.37516275 21.06349473 -7.37319672 19.13288838 -7.3724575 17.20228195 C-7.3703022 14.51901831 -7.36157903 11.83585968 -7.3508606 9.15261841 C-7.35131378 8.35063019 -7.35176697 7.54864197 -7.35223389 6.72235107 C-7.31201115 -0.12377747 -6.78859254 0.02370053 0 0 Z M311.79440308 94.13552856 C312.12440308 94.13552856 312.45440308 94.13552856 312.79440308 94.13552856 C312.79440308 95.78552856 312.79440308 97.43552856 312.79440308 99.13552856 C312.46440308 99.13552856 312.13440308 99.13552856 311.79440308 99.13552856 C311.79440308 97.48552856 311.79440308 95.83552856 311.79440308 94.13552856 Z " fill="#FAB634" transform="translate(102.20559692382813,277.8644714355469)"/>
<path d="M0 0 C5.33938099 3.49150779 9.19961885 8.33130878 11.14453125 14.40234375 C11.515625 17.234375 11.515625 17.234375 11.58203125 20.21484375 C11.62199219 21.19066406 11.66195312 22.16648438 11.703125 23.171875 C10.40876202 30.6574567 4.76745363 36.22075632 -0.46240234 41.39746094 C-1.10537766 42.04569321 -1.74835297 42.69392548 -2.41081238 43.36180115 C-4.5177444 45.48183287 -6.63533555 47.59082253 -8.75390625 49.69921875 C-10.23258549 51.17992134 -11.71081935 52.66106883 -13.18862915 54.14263916 C-16.27877958 57.23719917 -19.37425674 60.32630197 -22.47363281 63.41162109 C-26.43696842 67.35785098 -30.3866621 71.31741765 -34.33246422 75.28116989 C-37.37943502 78.3390025 -40.43354136 81.38962772 -43.4898262 84.4381485 C-44.94880733 85.89513505 -46.40558166 87.35433502 -47.86005783 88.81581879 C-49.89609663 90.85951293 -51.94157018 92.89328385 -53.98974609 94.92480469 C-54.58322342 95.52435471 -55.17670074 96.12390472 -55.78816223 96.74162292 C-61.4397975 102.30881014 -67.05958948 106.03342996 -75.10546875 106.65234375 C-90.23505782 105.64370448 -101.15980109 90.2838053 -111.2890625 80.20703125 C-111.96016619 79.54000309 -112.63126987 78.87297493 -113.32271004 78.1857338 C-116.86283683 74.66629639 -120.39980186 71.14371578 -123.93432617 67.61865234 C-127.57292725 63.99118724 -131.22307581 60.37556978 -134.87580776 56.76234245 C-137.69890865 53.9653875 -140.51308602 51.15958169 -143.32493782 48.35132217 C-144.66715261 47.01396447 -146.01273168 45.6799741 -147.36178398 44.34951401 C-149.24481792 42.49086733 -151.11478144 40.61994518 -152.98217773 38.74560547 C-153.53542725 38.20516602 -154.08867676 37.66472656 -154.65869141 37.10791016 C-159.50243846 32.198388 -162.28243617 27.05327191 -162.29296875 19.96484375 C-162.08188519 12.97030215 -159.77538794 8.59653711 -155.23046875 3.40234375 C-152.85546875 1.40234375 -152.85546875 1.40234375 -150.85546875 1.40234375 C-151.95722411 3.88129331 -153.12176175 5.72688835 -154.85546875 7.83984375 C-158.34373906 12.30919008 -159.40916629 16.27889354 -159.2156992 21.8956356 C-158.13845634 29.39176337 -152.52619203 35.31860371 -147.32446289 40.43505859 C-146.68963486 41.07528961 -146.05480682 41.71552063 -145.40074158 42.37515259 C-143.32377382 44.46451107 -141.23279945 46.53915899 -139.140625 48.61328125 C-137.68175108 50.07231033 -136.2235454 51.53200785 -134.76597595 52.99234009 C-131.72015848 56.03953707 -128.66752815 59.07968451 -125.60961914 62.11474609 C-121.69601131 65.999908 -117.79823297 69.90050841 -113.90519047 73.80626488 C-110.90048421 76.81793239 -107.88844355 79.8221755 -104.87405205 82.82414627 C-103.43392396 84.25976871 -101.99586714 85.6974721 -100.55995369 87.13731003 C-98.55251707 89.14766473 -96.53561881 91.14802223 -94.51586914 93.14599609 C-93.92814728 93.7382196 -93.34042542 94.33044312 -92.7348938 94.94061279 C-87.92758947 99.66233424 -83.39980695 102.8381435 -76.41796875 102.77734375 C-61.70785049 102.2803803 -51.84442987 88.56562957 -42.08984375 78.83984375 C-41.44021919 78.19304657 -40.79059464 77.54624939 -40.12128448 76.87985229 C-36.69046553 73.46393614 -33.26246405 70.04522314 -29.83691406 66.62402344 C-26.31100492 63.10361843 -22.77589622 59.59260428 -19.23858261 56.08366394 C-16.50541481 53.36915232 -13.77900957 50.64792425 -11.05438995 47.92483521 C-9.75398539 46.6274456 -8.45109404 45.33254337 -7.14562225 44.04025269 C-5.32002906 42.23179931 -3.50422926 40.41402151 -1.69042969 38.59375 C-1.15633484 38.06886993 -0.62223999 37.54398987 -0.07196045 37.00320435 C3.86366927 33.02363174 7.46686148 28.6412851 8.640625 23.03125 C8.44682938 16.19672444 7.16663454 10.91631001 2.83203125 5.52734375 C-3.16780481 0.78328733 -9.49740809 0.94179556 -16.85546875 1.40234375 C-18.52820255 1.70375796 -20.197621 2.0276042 -21.85546875 2.40234375 C-21.85546875 3.06234375 -21.85546875 3.72234375 -21.85546875 4.40234375 C-23.84831013 5.74635305 -25.84966546 7.07775667 -27.85546875 8.40234375 C-30.69336671 11.02739936 -33.204468 13.80919056 -35.66796875 16.77734375 C-38.50135996 20.14519894 -41.67010821 22.91529448 -45.01953125 25.7578125 C-47.26179386 27.76630731 -49.08715706 29.97091518 -50.85546875 32.40234375 C-51.51546875 32.07234375 -52.17546875 31.74234375 -52.85546875 31.40234375 C-49.02846558 25.35430205 -44.31228468 20.45198435 -39.27636719 15.39770508 C-37.74278954 13.85225989 -36.22891734 12.28913568 -34.71484375 10.72460938 C-24.70463112 0.54708946 -14.13634568 -6.95676556 0 0 Z " fill="#F6B337" transform="translate(331.85546875,118.59765625)"/>
<path d="M0 0 C0.75201691 -0.00700928 1.50403381 -0.01401855 2.27883911 -0.02124023 C4.75007703 -0.03876071 7.22015788 -0.02721951 9.69140625 -0.01367188 C11.41723855 -0.01636852 13.14306937 -0.02025238 14.86889648 -0.02526855 C18.48012809 -0.03115552 22.09096306 -0.02262674 25.70214844 -0.00390625 C30.32248 0.01888307 34.94188207 0.00575565 39.56217957 -0.01819611 C43.12421627 -0.03267593 46.68603396 -0.02803814 50.24807739 -0.01768494 C51.95126456 -0.01502367 53.65447185 -0.01826623 55.3576355 -0.02760315 C57.74156076 -0.03780517 60.12399762 -0.02221868 62.5078125 0 C63.20617218 -0.00809692 63.90453186 -0.01619385 64.62405396 -0.02453613 C69.62821004 0.06152118 72.4557765 1.30061688 76.25390625 4.51757812 C86.26586491 19.53551612 80.25390625 40.46826296 80.25390625 58.51757812 C47.91390625 58.51757812 15.57390625 58.51757812 -17.74609375 58.51757812 C-17.74609375 10.51757812 -17.74609375 10.51757812 -13.74609375 4.51757812 C-9.29064076 0.74387355 -5.68705247 -0.06593684 0 0 Z M-13.74609375 7.51757812 C-18.91544789 23.02564054 -15.74609375 40.17064501 -15.74609375 56.51757812 C15.27390625 56.51757812 46.29390625 56.51757812 78.25390625 56.51757812 C80.98333765 29.58562152 80.98333765 29.58562152 74.25390625 5.51757812 C70.2854663 3.1545896 66.21945399 3.22115362 61.71313477 3.22705078 C60.97101746 3.22033356 60.22890015 3.21361633 59.46429443 3.20669556 C57.02039832 3.18775687 54.57677735 3.18379372 52.1328125 3.18164062 C50.42797229 3.17521067 48.72313319 3.16848215 47.01829529 3.16146851 C43.44828737 3.1495067 39.87837615 3.14578664 36.30834961 3.14697266 C31.74074146 3.14717598 27.17375457 3.11985566 22.60629368 3.08542824 C19.08633085 3.06315998 15.56651768 3.05913506 12.04649162 3.06019211 C10.36282138 3.05783674 8.67914698 3.04901677 6.99554634 3.03352737 C4.63794871 3.01386471 2.28169289 3.01970504 -0.07592773 3.03173828 C-0.76650772 3.02049927 -1.45708771 3.00926025 -2.16859436 2.99768066 C-7.1266173 3.06177678 -10.04308617 4.23584498 -13.74609375 7.51757812 Z " fill="#F8B438" transform="translate(112.74609375,205.482421875)"/>
<path d="M0 0 C0.75157883 -0.0065712 1.50315765 -0.0131424 2.2775116 -0.01991272 C4.76467999 -0.03962273 7.25178809 -0.05130292 9.73901367 -0.0612793 C10.58931341 -0.06535482 11.43961315 -0.06943035 12.31567955 -0.07362938 C16.81591931 -0.09447992 21.31612866 -0.10878625 25.81640625 -0.11816406 C30.46026007 -0.12922883 35.10363476 -0.16363219 39.74731922 -0.20333576 C43.32216778 -0.22950105 46.89690211 -0.23785579 50.471838 -0.24144554 C52.18343022 -0.24631142 53.89501735 -0.25792552 55.60651588 -0.27648354 C58.00498904 -0.30087481 60.40222161 -0.29991055 62.80078125 -0.29296875 C63.85539047 -0.31218384 63.85539047 -0.31218384 64.93130493 -0.33178711 C70.80242279 -0.27003772 74.08510033 2.01374153 78.40698242 5.73950195 C89.54882155 19.22699142 80.59448242 40.68263282 80.59448242 58.17700195 C48.25448242 58.17700195 15.91448242 58.17700195 -17.40551758 58.17700195 C-17.40551758 8.55200195 -17.40551758 8.55200195 -12.40551758 2.92700195 C-8.66651909 -0.34462172 -4.70308802 0.01783294 0 0 Z M-13.40551758 7.17700195 C-15.29618267 10.04825735 -15.65474233 12.24859948 -15.6484375 15.65429688 C-15.65151413 16.53168015 -15.65459076 17.40906342 -15.65776062 18.31303406 C-15.6505751 19.25169815 -15.64338959 20.19036224 -15.63598633 21.1574707 C-15.63552811 22.12606522 -15.63506989 23.09465973 -15.63459778 24.09260559 C-15.63158052 26.1359683 -15.62370998 28.17932882 -15.61132812 30.22265625 C-15.59302564 33.36311918 -15.59081881 36.50328803 -15.59106445 39.64379883 C-15.58615089 41.62752535 -15.58032329 43.61124987 -15.57348633 45.5949707 C-15.5723735 46.53970749 -15.57126068 47.48444427 -15.57011414 48.45780945 C-15.56373428 49.32573624 -15.55735443 50.19366302 -15.55078125 51.08789062 C-15.54696945 51.85526047 -15.54315765 52.62263031 -15.53923035 53.41325378 C-15.5961559 55.20357359 -15.5961559 55.20357359 -14.40551758 56.17700195 C-11.51408607 56.272241 -8.64659693 56.30253223 -5.75488281 56.29052734 C-4.84765472 56.29067337 -3.94042664 56.2908194 -3.00570679 56.29096985 C0.00818227 56.29027036 3.02201035 56.2824763 6.03588867 56.2746582 C8.1195421 56.27279415 10.20319596 56.27137019 12.28684998 56.27037048 C17.78271689 56.26654429 23.27855755 56.25671315 28.77441406 56.2456665 C34.3778447 56.23545455 39.98127955 56.23087333 45.5847168 56.22583008 C56.58798356 56.21509097 67.59123081 56.19801335 78.59448242 56.17700195 C78.67062902 49.85994194 78.72312274 43.54300057 78.75927734 37.22558594 C78.77435157 35.07710344 78.79481431 32.92865165 78.82080078 30.78027344 C78.85724356 27.68978287 78.87422261 24.59969965 78.88745117 21.5090332 C78.90293503 20.55051956 78.91841888 19.59200592 78.93437195 18.60444641 C78.96148061 11.8667677 78.96148061 11.8667677 75.59448242 6.17700195 C71.5822252 2.92302979 67.83575885 2.74149216 62.85424805 2.77294922 C62.0910173 2.76608597 61.32778656 2.75922272 60.54142761 2.75215149 C58.02767139 2.73390418 55.51454043 2.73771744 53.00073242 2.7434082 C51.24865517 2.7388458 49.4965797 2.73354005 47.74450684 2.7275238 C44.07609782 2.71859709 40.40790656 2.72101126 36.73950195 2.73095703 C32.04173189 2.74245347 27.34471274 2.72222297 22.64704132 2.69303989 C19.03016397 2.67468346 15.41346682 2.67496909 11.79655457 2.68067741 C10.06462042 2.68083066 8.33267408 2.67478368 6.6007843 2.66238594 C4.17828386 2.64748565 1.7571741 2.65814416 -0.6652832 2.67529297 C-1.37815994 2.665625 -2.09103668 2.65595703 -2.82551575 2.64599609 C-7.62348821 2.7170171 -10.07785077 3.7290366 -13.40551758 7.17700195 Z " fill="#F9B73B" transform="translate(337.405517578125,205.822998046875)"/>
<path d="M0 0 C0.99 0.33 1.98 0.66 3 1 C3.80859375 3.80859375 3.80859375 3.80859375 4.4375 7.4375 C5.65253091 13.69713568 7.39922542 19.19827209 10 25 C10.474375 26.11375 10.94875 27.2275 11.4375 28.375 C11.953125 29.57125 12.46875 30.7675 13 32 C13.33515625 32.87140625 13.6703125 33.7428125 14.015625 34.640625 C23.31754411 58.32951235 41.30165321 80.30074146 62 95 C63.01151123 95.72388916 63.01151123 95.72388916 64.04345703 96.46240234 C78.79955933 106.88357447 93.832449 114.35171376 111 120 C112.03125 120.36996094 113.0625 120.73992187 114.125 121.12109375 C122.10278642 123.84351337 129.88001163 124.85508348 138.2265625 125.60546875 C142 126 142 126 145 127 C147.06362991 127.15029988 149.13123915 127.24844448 151.19921875 127.31640625 C152.40771484 127.35830078 153.61621094 127.40019531 154.86132812 127.44335938 C156.12396484 127.48267578 157.38660156 127.52199219 158.6875 127.5625 C160.59885742 127.62727539 160.59885742 127.62727539 162.54882812 127.69335938 C165.69910852 127.7995486 168.84946839 127.90159533 172 128 C172 128.66 172 129.32 172 130 C139.48897792 130.62706719 139.48897792 130.62706719 124 127 C122.09154297 126.56494141 122.09154297 126.56494141 120.14453125 126.12109375 C93.46829798 119.5142339 66.68564169 106.551245 47.50878906 86.51367188 C45.8509582 84.78858763 45.8509582 84.78858763 43.125 82.75 C21.68413211 65.22294133 4.94162211 31.81607525 0 5 C-0.0514987 3.33412916 -0.07145166 1.66513436 0 0 Z " fill="#F7B236" transform="translate(98,380)"/>
<path d="M0 0 C3.70415637 2.010133 6.21965508 4.85692832 8.59765625 8.28125 C5.59765625 8.28125 5.59765625 8.28125 3.28515625 6.40625 C-1.42497533 2.68195991 -6.14558237 1.81581263 -12.02734375 1.96484375 C-17.46828046 2.68970538 -21.92606881 4.84282826 -25.83984375 8.65625 C-28.60163868 13.29606548 -29.64989452 17.60590038 -29.68081665 22.9760437 C-29.69198013 24.08654587 -29.70314362 25.19704803 -29.71464539 26.34120178 C-29.71680557 27.54457687 -29.71896576 28.74795197 -29.72119141 29.98779297 C-29.73625984 31.90568382 -29.73625984 31.90568382 -29.75163269 33.86231995 C-29.77885841 37.35564226 -29.79405994 40.84892441 -29.80706072 44.34232473 C-29.8227239 47.99788597 -29.84950391 51.65336559 -29.87509155 55.30886841 C-29.92182304 62.22537623 -29.95859433 69.1418995 -29.99176443 76.0584842 C-30.03002568 83.93518661 -30.07942532 91.81180694 -30.12974858 99.68844008 C-30.23298466 115.88598438 -30.32227203 132.08357428 -30.40234375 148.28125 C-31.72234375 148.61125 -33.04234375 148.94125 -34.40234375 149.28125 C-35.63984375 147.7653125 -35.63984375 147.7653125 -36.90234375 146.21875 C-39.14440807 143.59516891 -41.44517179 141.30764034 -44.08984375 139.09375 C-48.24763774 135.58236928 -51.81308895 131.64946472 -55.36987305 127.54418945 C-59.90298248 122.42151619 -64.69244512 118.87721054 -71.40234375 117.28125 C-74.84054328 117.25060377 -74.84054328 117.25060377 -78.27734375 117.65625 C-79.42976562 117.76710938 -80.5821875 117.87796875 -81.76953125 117.9921875 C-82.63835937 118.08757812 -83.5071875 118.18296875 -84.40234375 118.28125 C-84.40234375 117.62125 -84.40234375 116.96125 -84.40234375 116.28125 C-79.52260489 113.67872261 -74.77194159 113.63512754 -69.40234375 114.28125 C-59.66986193 117.2592014 -53.21493158 124.92462222 -46.40234375 132.03125 C-44.70997069 133.77366765 -43.01400704 135.51248207 -41.31591797 137.24932861 C-40.26784696 138.32372925 -39.22373061 139.40200537 -38.18408203 140.48455811 C-35.56827371 143.23908427 -35.56827371 143.23908427 -32.40234375 145.28125 C-32.40603092 144.61863914 -32.40971809 143.95602829 -32.413517 143.27333832 C-32.50195571 127.1309491 -32.56809587 110.98863688 -32.60959244 94.84606171 C-32.63019463 87.03953842 -32.65827015 79.23317711 -32.70410156 71.42675781 C-32.7440414 64.62058478 -32.76979359 57.8145291 -32.77869773 51.00824213 C-32.78390047 47.4062004 -32.79607918 43.8044943 -32.82526398 40.20256042 C-32.85762373 36.17590615 -32.8582986 32.14983085 -32.85644531 28.12304688 C-32.87082642 26.93621307 -32.88520752 25.74937927 -32.90002441 24.52658081 C-32.86047543 16.58006014 -31.81847303 11.10390522 -26.3671875 5.00390625 C-25.36365234 4.18212891 -25.36365234 4.18212891 -24.33984375 3.34375 C-23.33244141 2.49490234 -23.33244141 2.49490234 -22.3046875 1.62890625 C-16.69281454 -2.34665057 -6.45175147 -1.93028011 0 0 Z " fill="#F8B336" transform="translate(266.40234375,1.71875)"/>
<path d="M0 0 C32.01 0 64.02 0 97 0 C97.020625 14.210625 97.04125 28.42125 97.0625 43.0625 C97.071604 47.54078369 97.08070801 52.01906738 97.09008789 56.63305664 C97.09460449 62.12390137 97.09460449 62.12390137 97.09544373 64.69871521 C97.09697398 66.48757679 97.10047995 68.27643738 97.10557556 70.06529236 C97.11292708 72.78321104 97.11390491 75.50106696 97.11352539 78.21899414 C97.1171235 79.00885491 97.12072161 79.79871569 97.12442875 80.61251163 C97.11593177 85.17800979 96.75237723 89.49526272 96 94 C95.34 94 94.68 94 94 94 C94.33 63.97 94.66 33.94 95 3 C63.65 3 32.3 3 0 3 C0 2.01 0 1.02 0 0 Z M93 94 C93.33 94 93.66 94 94 94 C94 95.65 94 97.3 94 99 C93.67 99 93.34 99 93 99 C93 97.35 93 95.7 93 94 Z " fill="#FCB736" transform="translate(321,278)"/>
<path d="M0 0 C2.87107772 2.87107772 2.3029591 5.7457727 2.30639648 9.59228516 C2.31472 10.37642288 2.32304352 11.16056061 2.33161926 11.96846008 C2.35581317 14.57537761 2.3645096 17.18204437 2.37109375 19.7890625 C2.3800642 21.60875522 2.38918612 23.42844719 2.39845276 25.24813843 C2.41497848 29.07657662 2.4226474 32.90492712 2.42553711 36.73339844 C2.43087617 41.59727877 2.46835249 46.46031069 2.51428127 51.32395363 C2.54432196 55.09224281 2.55126671 58.86033619 2.55226326 62.62873459 C2.55642462 64.41859125 2.56869107 66.20845077 2.58978081 67.99818802 C2.74687677 82.50454084 1.31355359 96.6400139 -7.875 108.5 C-8.31207275 109.06984619 -8.74914551 109.63969238 -9.19946289 110.22680664 C-10.44477021 111.83478482 -11.72137642 113.41838505 -13 115 C-13.89912109 116.18916016 -13.89912109 116.18916016 -14.81640625 117.40234375 C-22.9094874 127.56257334 -38.24268296 135.46438419 -51 138 C-52.81986138 138.09134639 -54.64269256 138.1306552 -56.46484375 138.1328125 C-57.51220703 138.13410156 -58.55957031 138.13539063 -59.63867188 138.13671875 C-60.72728516 138.13285156 -61.81589844 138.12898437 -62.9375 138.125 C-64.02224609 138.12886719 -65.10699219 138.13273438 -66.22460938 138.13671875 C-67.27326172 138.13542969 -68.32191406 138.13414062 -69.40234375 138.1328125 C-70.35616943 138.13168457 -71.30999512 138.13055664 -72.29272461 138.12939453 C-75.00935332 137.99955296 -77.39118216 137.77881009 -80 137 C-80.66 136.01 -81.32 135.02 -82 134 C-81.43716309 134.0407666 -80.87432617 134.0815332 -80.29443359 134.12353516 C-56.95296378 135.73608015 -38.34032808 133.39001738 -19.875 117.8125 C-6.7651166 105.65791043 -1.50780896 89.28806537 -0.79095459 71.8225708 C-0.65456296 67.21829878 -0.6188349 62.61377333 -0.5859375 58.0078125 C-0.56717672 56.32387394 -0.54759988 54.6399443 -0.5272522 52.95602417 C-0.4764426 48.57339798 -0.43654691 44.19074148 -0.39910889 39.8079834 C-0.35874394 35.31592632 -0.30780176 30.8239897 -0.2578125 26.33203125 C-0.16166115 17.55477052 -0.07706673 8.77744897 0 0 Z " fill="#EDAC34" transform="translate(320,279)"/>
<path d="M0 0 C1.9375 0.8125 1.9375 0.8125 4 2 C4.94627561 4.83882682 5.12560568 6.57557068 5.12698364 9.51609802 C5.13121338 10.90512833 5.13121338 10.90512833 5.13552856 12.32221985 C5.13350433 13.33664658 5.1314801 14.3510733 5.12939453 15.39624023 C5.13114685 16.46670593 5.13289917 17.53717163 5.13470459 18.64007568 C5.13912133 22.19626467 5.1361822 25.75240421 5.1328125 29.30859375 C5.13348643 31.78988149 5.1344572 34.27116916 5.13571167 36.75245667 C5.1373785 42.63946232 5.13387073 48.52645013 5.1285609 54.41345316 C5.12378671 60.37987524 5.12852752 66.34627607 5.13394356 72.31269741 C5.13759126 77.44936927 5.13639059 82.58603176 5.13381577 87.72270393 C5.13315544 90.16512113 5.13394309 92.60753922 5.13629532 95.04995537 C5.14706563 109.40010597 4.89116673 123.67584453 4 138 C3.67 138 3.34 138 3 138 C2.99576806 137.40053275 2.99153612 136.8010655 2.98717594 136.18343258 C2.88343864 121.53230275 2.77474072 106.88121537 2.66066074 92.23016262 C2.60560746 85.14474948 2.55217452 78.05933133 2.50268555 70.97387695 C2.45949859 64.79130625 2.41313958 58.60876843 2.36312145 52.42624909 C2.33679483 49.15893144 2.31242824 45.89161912 2.29092598 42.62426567 C3.0037333 21.12773082 3.0037333 21.12773082 0 0 Z " fill="#F5B131" transform="translate(274,12)"/>
<path d="M0 0 C0.66 0 1.32 0 2 0 C-0.09639627 30.04834656 -26.76139115 60.78156185 -48 80 C-58.64255179 89 -58.64255179 89 -62 89 C-60.67860598 85.03581794 -58.82943866 84.23055688 -55.4375 81.8125 C-41.75994684 71.64571119 -30.38690816 59.18095154 -21 45 C-20.43152344 44.14277344 -19.86304688 43.28554688 -19.27734375 42.40234375 C-10.93167956 29.07153614 -5.14691017 14.79736673 0 0 Z " fill="#F5B136" transform="translate(410,392)"/>
<path d="M0 0 C0.66 0 1.32 0 2 0 C2 0.66 2 1.32 2 2 C1.34 2 0.68 2 0 2 C0.33 2.66 0.66 3.32 1 4 C1.116062 6.2574222 1.16706071 8.51827156 1.18945312 10.77856445 C1.19774643 11.47664215 1.20603973 12.17471985 1.21458435 12.89395142 C1.23201303 14.41570558 1.24717209 15.93748701 1.26036072 17.45928383 C1.2814738 19.88903642 1.30850779 22.31866066 1.33703613 24.74833679 C1.39679773 29.93633984 1.44862918 35.1244082 1.5 40.3125 C1.56796272 47.07948615 1.6397147 53.84641481 1.71875 60.61328125 C1.73282898 61.83496695 1.73282898 61.83496695 1.74719238 63.08133316 C1.89453813 75.40410379 2.23465989 87.69790077 3 100 C2.34 100 1.68 100 1 100 C-1.61962098 89.67176192 -1.27318496 79.27984022 -1.23046875 68.7109375 C-1.22927489 66.75607331 -1.22882422 64.80120853 -1.2290802 62.84634399 C-1.2275244 58.77333933 -1.21929832 54.7004237 -1.20581055 50.62744141 C-1.18870867 45.3961114 -1.1849999 40.16487788 -1.18575573 34.93352318 C-1.18548469 30.90852938 -1.18001595 26.88355685 -1.17275429 22.8585701 C-1.16956583 20.92796616 -1.1675998 18.99735982 -1.16686058 17.06675339 C-1.16470528 14.38348975 -1.15598211 11.70033111 -1.14526367 9.01708984 C-1.14571686 8.21510162 -1.14617004 7.4131134 -1.14663696 6.58682251 C-1.1144856 1.1144856 -1.1144856 1.1144856 0 0 Z " fill="#F0A932" transform="translate(96,278)"/>
<path d="M0 0 C0 0.66 0 1.32 0 2 C-0.928125 2.391875 -1.85625 2.78375 -2.8125 3.1875 C-6.48425111 5.27535848 -7.3307574 6.16256481 -9 10 C-9.40325684 13.44844995 -9.34898727 16.86425741 -9.29296875 20.33203125 C-9.28872391 21.32377853 -9.28447906 22.31552582 -9.28010559 23.33732605 C-9.26335123 26.49599685 -9.22570448 29.65402297 -9.1875 32.8125 C-9.17244899 34.95767306 -9.15876132 37.10285615 -9.14648438 39.24804688 C-9.11345841 44.49891681 -9.06329122 49.74941234 -9 55 C-9.99 55 -10.98 55 -12 55 C-12.07613738 48.54052286 -12.12863649 42.0811617 -12.16479492 35.62133789 C-12.17987052 33.42435379 -12.20033426 31.22739974 -12.22631836 29.03051758 C-12.26275502 25.87053 -12.27973884 22.71094076 -12.29296875 19.55078125 C-12.31619453 18.08020012 -12.31619453 18.08020012 -12.33988953 16.57991028 C-12.34149669 10.0505202 -11.26439585 6.79275488 -7.125 1.6875 C-4.54816963 -0.35880647 -3.20984995 -0.35664999 0 0 Z " fill="#EDAB31" transform="translate(332,207)"/>
<path d="M0 0 C0.495 0.99 0.495 0.99 1 2 C-24.68691011 9.40370787 -24.68691011 9.40370787 -37 9 C-36.67 8.01 -36.34 7.02 -36 6 C-34.15148437 5.85304688 -34.15148437 5.85304688 -32.265625 5.703125 C-23.58404809 4.94263081 -15.61425452 4.06750108 -7.4453125 0.8046875 C-4.82459519 -0.05772107 -2.74026845 -0.14732626 0 0 Z " fill="#F9B733" transform="translate(308,500)"/>
<path d="M0 0 C11.55 0.33 23.1 0.66 35 1 C35 1.66 35 2.32 35 3 C25.43 3 15.86 3 6 3 C6 2.34 6 1.68 6 1 C4.02 1 2.04 1 0 1 C0 0.67 0 0.34 0 0 Z " fill="#FDC140" transform="translate(235,507)"/>
<path d="M0 0 C-1.10175536 2.47894956 -2.266293 4.3245446 -4 6.4375 C-7.52963928 10.95985033 -8.24999015 14.62544838 -8.125 20.3125 C-8.10695312 21.38113281 -8.08890625 22.44976562 -8.0703125 23.55078125 C-8.04710937 24.35902344 -8.02390625 25.16726562 -8 26 C-8.66 26.33 -9.32 26.66 -10 27 C-11.9848849 21.04534529 -12.01898824 14.35446099 -9.3125 8.625 C-4.32561728 0 -4.32561728 0 0 0 Z " fill="#FCB83E" transform="translate(181,120)"/>
<path d="M0 0 C-1 3 -1 3 -2.71826172 4.07495117 C-3.44803223 4.39439697 -4.17780273 4.71384277 -4.9296875 5.04296875 C-5.72503906 5.39423828 -6.52039063 5.74550781 -7.33984375 6.10742188 C-8.59474609 6.64206055 -8.59474609 6.64206055 -9.875 7.1875 C-10.70386719 7.55552734 -11.53273438 7.92355469 -12.38671875 8.30273438 C-18.58192254 11 -18.58192254 11 -22 11 C-22 10.34 -22 9.68 -22 9 C-18.71106997 7.49394598 -15.41842554 5.99619468 -12.125 4.5 C-11.18785156 4.07074219 -10.25070312 3.64148438 -9.28515625 3.19921875 C-8.38925781 2.79316406 -7.49335938 2.38710938 -6.5703125 1.96875 C-5.74289551 1.59169922 -4.91547852 1.21464844 -4.06298828 0.82617188 C-2 0 -2 0 0 0 Z " fill="#F9B337" transform="translate(333,489)"/>
<path d="M0 0 C0.66 0 1.32 0 2 0 C1.52464031 2.79236448 1.0448933 5.58384991 0.5625 8.375 C0.42779297 9.1690625 0.29308594 9.963125 0.15429688 10.78125 C-0.88671875 16.7734375 -0.88671875 16.7734375 -2 19 C-2.66 19 -3.32 19 -4 19 C-4.33893061 13.46413339 -3.3134716 9.99709866 -1 5 C-0.30859478 2.22111387 -0.30859478 2.22111387 0 0 Z " fill="#F4AC31" transform="translate(415,372)"/>
<path d="M0 0 C0.33 0 0.66 0 1 0 C1.33 6.93 1.66 13.86 2 21 C1.34 21 0.68 21 0 21 C-0.33776684 19.2508503 -0.67003671 17.50063855 -1 15.75 C-1.185625 14.77546875 -1.37125 13.8009375 -1.5625 12.796875 C-2 10 -2 10 -2 6 C-1.34 6 -0.68 6 0 6 C0 4.02 0 2.04 0 0 Z " fill="#F6B335" transform="translate(97,357)"/>
<path d="M0 0 C-7.15174425 3.43283724 -14.12741585 3.7955236 -22 3 C-22.66 2.34 -23.32 1.68 -24 1 C-21.07175348 0.02391783 -19.04386724 -0.08226668 -16 0 C-16 0.66 -16 1.32 -16 2 C-14.51886719 1.65775391 -14.51886719 1.65775391 -13.0078125 1.30859375 C-11.72648437 1.02113281 -10.44515625 0.73367188 -9.125 0.4375 C-7.84882813 0.14746094 -6.57265625 -0.14257812 -5.2578125 -0.44140625 C-2 -1 -2 -1 0 0 Z " fill="#F5B730" transform="translate(277,414)"/>
<path d="M0 0 C5.28 0 10.56 0 16 0 C16.33 1.32 16.66 2.64 17 4 C14.54006972 3.7186941 12.08259752 3.42547269 9.625 3.125 C8.57699219 3.00705078 8.57699219 3.00705078 7.5078125 2.88671875 C2.2265625 2.2265625 2.2265625 2.2265625 0 0 Z " fill="#F6AF2D" transform="translate(224,506)"/>
<path d="M0 0 C0 0.66 0 1.32 0 2 C-1.609375 3.32421875 -1.609375 3.32421875 -3.75 4.6875 C-4.44609375 5.14511719 -5.1421875 5.60273438 -5.859375 6.07421875 C-8.39090725 7.16906025 -9.46100862 6.9435441 -12 6 C-10.37829621 4.99466333 -8.75252763 3.99588093 -7.125 3 C-5.76761719 2.1646875 -5.76761719 2.1646875 -4.3828125 1.3125 C-2 0 -2 0 0 0 Z " fill="#F9B335" transform="translate(347,481)"/>
<path d="M0 0 C0.33 0 0.66 0 1 0 C1.33 3.96 1.66 7.92 2 12 C1.01 12.495 1.01 12.495 0 13 C-0.94738023 10.15785932 -1.13460559 8.32391609 -1.125 5.375 C-1.12757813 4.57835937 -1.13015625 3.78171875 -1.1328125 2.9609375 C-1 1 -1 1 0 0 Z " fill="#FDBE44" transform="translate(171,134)"/>
<path d="M0 0 C5.21979128 -0.1799928 9.07262981 0.02905192 14 2 C14 2.33 14 2.66 14 3 C11.36 3 8.72 3 6 3 C6 2.34 6 1.68 6 1 C4.02 1 2.04 1 0 1 C0 0.67 0 0.34 0 0 Z " fill="#FCBB36" transform="translate(235,507)"/>
<path d="M0 0 C-2.62198774 2.15377564 -4.64404172 3.40072174 -8 4 C-8 3.01 -8 2.02 -8 1 C-4.93251126 -0.86240388 -3.40254489 -1.2151946 0 0 Z " fill="#FAB53C" transform="translate(317,118)"/>
<path d="M0 0 C-2.93828597 2.50298434 -5.17902761 3.46930939 -9 4 C-8.67 3.01 -8.34 2.02 -8 1 C-5.07175348 0.02391783 -3.04386724 -0.08226668 0 0 Z " fill="#F5B338" transform="translate(287,409)"/>
<path d="M0 0 C0.66 0 1.32 0 2 0 C3.6875 2.375 3.6875 2.375 5 5 C4.67 5.66 4.34 6.32 4 7 C2 5.1875 2 5.1875 0 3 C0 2.01 0 1.02 0 0 Z " fill="#F4AA2F" transform="translate(201,384)"/>
<path d="M0 0 C-1.15173355 2.46800047 -2.04783565 4.04783565 -4 6 C-4.99 5.67 -5.98 5.34 -7 5 C-2.25 0 -2.25 0 0 0 Z " fill="#F6AD37" transform="translate(181,120)"/>
</svg>
